<?xml version="1.0" standalone="no"?>
<!DOCTYPE svg PUBLIC "-//W3C//DTD SVG 20010904//EN"
 "http://www.w3.org/TR/2001/REC-SVG-20010904/DTD/svg10.dtd">
<svg version="1.0" xmlns="http://www.w3.org/2000/svg"
 width="260.000000pt" height="260.000000pt" viewBox="0 0 260.000000 260.000000"
 preserveAspectRatio="xMidYMid meet">
<metadata>
Created by potrace 1.11, written by Peter Selinger 2001-2013
</metadata>
<g transform="translate(0.000000,260.000000) scale(0.100000,-0.100000)"
fill="#000000" stroke="none">
<path d="M800 2568 c-170 -30 -294 -182 -293 -358 2 -194 163 -353 359 -352
290 1 456 322 293 562 -77 113 -222 173 -359 148z"/>
<path d="M1678 2575 c-2 -2 -18 -5 -36 -8 -51 -8 -132 -52 -175 -93 -178 -174
-132 -472 88 -579 128 -62 268 -49 380 37 207 158 174 489 -60 603 -28 14 -63
28 -78 30 -34 7 -116 13 -119 10z"/>
<path d="M0 1890 l0 -160 160 0 160 0 0 160 0 160 -160 0 -160 0 0 -160z m310
0 l0 -150 -150 0 -150 0 0 150 0 150 150 0 150 0 0 -150z"/>
<path d="M1258 1905 c-2 -1 -37 -5 -79 -9 -271 -23 -561 -224 -690 -478 -31
-62 -81 -188 -74 -188 3 0 0 -11 -5 -25 -20 -51 -29 -210 -19 -299 12 -94 18
-122 41 -189 215 -630 997 -827 1479 -372 327 307 375 812 114 1180 -143 202
-381 344 -620 370 -78 8 -144 13 -147 10z"/>
</g>
</svg>
